<svg width="26" height="26" viewBox="0 0 26 26" fill="none" xmlns="http://www.w3.org/2000/svg">
<path d="M12.9999 23.8333C11.6457 23.8333 10.3773 23.576 9.19469 23.0615C8.01206 22.5469 6.98289 21.8517 6.10719 20.976C5.2315 20.1004 4.53636 19.0712 4.02178 17.8885C3.50719 16.7059 3.2499 15.4375 3.2499 14.0833C3.2499 12.7292 3.50719 11.4608 4.02178 10.2781C4.53636 9.09549 5.2315 8.06632 6.10719 7.19063C6.98289 6.31493 8.01206 5.6198 9.19469 5.10521C10.3773 4.59063 11.6457 4.33334 12.9999 4.33334C14.3541 4.33334 15.6225 4.59063 16.8051 5.10521C17.9877 5.6198 19.0169 6.31493 19.8926 7.19063C20.7683 8.06632 21.4634 9.09549 21.978 10.2781C22.4926 11.4608 22.7499 12.7292 22.7499 14.0833C22.7499 15.4375 22.4926 16.7059 21.978 17.8885C21.4634 19.0712 20.7683 20.1004 19.8926 20.976C19.0169 21.8517 17.9877 22.5469 16.8051 23.0615C15.6225 23.576 14.3541 23.8333 12.9999 23.8333ZM16.0332 18.6333L17.5499 17.1167L14.0832 13.65V8.66667H11.9166V14.5167L16.0332 18.6333ZM6.06657 2.54584L7.58324 4.0625L2.97907 8.66667L1.4624 7.15L6.06657 2.54584ZM19.9332 2.54584L24.5374 7.15L23.0207 8.66667L18.4166 4.0625L19.9332 2.54584Z" fill="white"/>
</svg>
