<svg width="17" height="15" viewBox="0 0 17 15" fill="none" xmlns="http://www.w3.org/2000/svg">
<path d="M13.8833 8.33333H4.04762V6.66667H13.8833L12.6286 5.375L13.7619 4.16667L17 7.5L13.7619 10.8333L12.6286 9.625L13.8833 8.33333ZM9.71429 5V1.66667H1.61905V13.3333H9.71429V10H11.3333V13.3333C11.3333 13.7917 11.1748 14.184 10.8577 14.5104C10.5407 14.8368 10.1595 15 9.71429 15H1.61905C1.17381 15 0.792659 14.8368 0.475595 14.5104C0.158532 14.184 0 13.7917 0 13.3333V1.66667C0 1.20833 0.158532 0.815972 0.475595 0.489583C0.792659 0.163194 1.17381 0 1.61905 0H9.71429C10.1595 0 10.5407 0.163194 10.8577 0.489583C11.1748 0.815972 11.3333 1.20833 11.3333 1.66667V5H9.71429Z" fill="white"/>
</svg>
